<svg width="48" height="48" viewBox="0 0 48 48" fill="none" xmlns="http://www.w3.org/2000/svg">
<path d="M24 4.32432C30.2015 4.32432 30.9361 4.34876 33.3851 4.46422C34.8579 4.48228 36.3167 4.76182 37.6979 5.29062C38.6995 5.6899 39.6092 6.30145 40.3684 7.08592C41.1276 7.87039 41.7194 8.81041 42.1058 9.84548C42.6175 11.2726 42.888 12.7801 42.9055 14.3019C43.0173 16.8327 43.0409 17.5917 43.0409 23.9999C43.0409 30.4081 43.0173 31.1672 42.9055 33.6979C42.8881 35.2198 42.6175 36.7272 42.1058 38.1544C41.7194 39.1895 41.1276 40.1295 40.3684 40.914C39.6092 41.6984 38.6995 42.31 37.6979 42.7093C36.3167 43.2381 34.8579 43.5176 33.3851 43.5357C30.9364 43.6511 30.2019 43.6756 24 43.6756C17.798 43.6756 17.0635 43.6511 14.6148 43.5357C13.142 43.5176 11.6832 43.2381 10.3021 42.7093C9.30041 42.31 8.39072 41.6984 7.63155 40.914C6.87238 40.1295 6.28056 39.1895 5.89416 38.1544C5.38243 36.7272 5.11191 35.2198 5.09442 33.698C4.98269 31.1672 4.95903 30.4082 4.95903 24C4.95903 17.5918 4.98269 16.8326 5.09442 14.302C5.1119 12.7801 5.38242 11.2726 5.89416 9.84548C6.28056 8.81041 6.87237 7.8704 7.63153 7.08593C8.39069 6.30145 9.30038 5.6899 10.3021 5.29062C11.6832 4.76182 13.142 4.48229 14.6147 4.46422C17.0639 4.34876 17.7984 4.32432 23.9999 4.32432H24ZM24 0C17.6922 0 16.9013 0.0275996 14.424 0.1444C12.4972 0.184291 10.5909 0.561505 8.78616 1.26C7.2433 1.8766 5.84212 2.81947 4.6724 4.02817C3.50268 5.23688 2.59024 6.68477 1.99353 8.27906C1.31757 10.144 0.952529 12.1138 0.913931 14.1048C0.800879 16.6647 0.77417 17.482 0.77417 24C0.77417 30.518 0.800879 31.3353 0.913912 33.8952C0.952516 35.8862 1.31756 37.856 1.99353 39.7209C2.59024 41.3152 3.50268 42.7631 4.6724 43.9718C5.84212 45.1805 7.2433 46.1234 8.78616 46.74C10.5909 47.4385 12.4972 47.8157 14.424 47.8556C16.9013 47.9724 17.6922 48 24 48C30.3077 48 31.0987 47.9724 33.5759 47.8556C35.5027 47.8157 37.409 47.4385 39.2138 46.74C40.7566 46.1234 42.1578 45.1805 43.3275 43.9718C44.4973 42.7631 45.4097 41.3152 46.0064 39.7209C46.6824 37.856 47.0474 35.8862 47.086 33.8952C47.1991 31.3353 47.2258 30.518 47.2258 24C47.2258 17.482 47.1991 16.6647 47.086 14.1048C47.0474 12.1138 46.6824 10.144 46.0064 8.27906C45.4097 6.68477 44.4973 5.23688 43.3275 4.02817C42.1578 2.81947 40.7566 1.8766 39.2138 1.26C37.409 0.561512 35.5027 0.184305 33.5759 0.14442C31.0987 0.0275997 30.3077 0 24 0ZM24 11.6757C21.6411 11.6757 19.3352 12.3985 17.3738 13.7527C15.4125 15.1069 13.8838 17.0317 12.9811 19.2837C12.0784 21.5357 11.8422 24.0137 12.3024 26.4044C12.7626 28.795 13.8985 30.991 15.5665 32.7146C17.2345 34.4382 19.3596 35.612 21.6732 36.0875C23.9867 36.563 26.3848 36.319 28.5642 35.3862C30.7435 34.4534 32.6062 32.8738 33.9167 30.847C35.2272 28.8203 35.9267 26.4375 35.9267 24C35.9267 20.7314 34.6702 17.5966 32.4335 15.2854C30.1968 12.9741 27.1632 11.6757 24 11.6757V11.6757ZM24 32C22.4688 32 20.9719 31.5308 19.6988 30.6518C18.4256 29.7727 17.4333 28.5233 16.8474 27.0615C16.2614 25.5997 16.1081 23.9911 16.4068 22.4393C16.7055 20.8874 17.4429 19.462 18.5256 18.3431C19.6083 17.2243 20.9878 16.4624 22.4896 16.1537C23.9914 15.845 25.548 16.0035 26.9627 16.609C28.3773 17.2145 29.5865 18.2398 30.4372 19.5554C31.2879 20.871 31.7419 22.4177 31.7419 24C31.7419 26.1217 30.9262 28.1566 29.4744 29.6569C28.0225 31.1571 26.0533 32 24 32ZM36.398 8.30874C35.8467 8.30874 35.3079 8.47765 34.8495 8.79411C34.3912 9.11057 34.034 9.56036 33.823 10.0866C33.6121 10.6129 33.5569 11.1919 33.6644 11.7506C33.772 12.3093 34.0374 12.8224 34.4272 13.2252C34.817 13.628 35.3136 13.9023 35.8542 14.0134C36.3949 14.1245 36.9553 14.0675 37.4645 13.8495C37.9738 13.6315 38.4091 13.2624 38.7154 12.7888C39.0216 12.3152 39.1851 11.7583 39.1851 11.1887C39.1851 10.8105 39.113 10.436 38.9729 10.0866C38.8328 9.73719 38.6276 9.41971 38.3687 9.15227C38.1099 8.88484 37.8027 8.6727 37.4645 8.52797C37.1264 8.38323 36.764 8.30874 36.398 8.30874Z" fill="white"/>
</svg>
