<svg width="208" height="48" viewBox="0 0 208 48" fill="none" xmlns="http://www.w3.org/2000/svg">
<rect width="208" height="48" fill="black"/>
<path d="M22.882 39H25.024L37.48 9.3H34.384L23.962 34.878L13.522 9.3H10.426L22.882 39ZM55.0443 39H57.7803V9.3H55.0443V39ZM84.5559 39H86.6979L99.1539 9.3H96.0579L85.6359 34.878L75.1959 9.3H72.0999L84.5559 39ZM116.538 39H119.274V9.3H116.538V39ZM139.568 39H142.304V13.998L158.252 39H160.988V9.3H158.252V34.338L142.304 9.3H139.568V39ZM181.302 39H196.26V36.588H184.038V25.32H195.828V22.908H184.038V11.712H196.26V9.3H181.302V39Z" fill="white"/>
</svg>
