<svg width="48" height="48" viewBox="0 0 48 48" fill="none" xmlns="http://www.w3.org/2000/svg">
<path fill-rule="evenodd" clip-rule="evenodd" d="M4.8 0H43.2C45.8511 0 48 2.14886 48 4.8V43.2C48 45.8511 45.8511 48 43.2 48H4.8C2.14886 48 0 45.8511 0 43.2V4.8C0 2.14886 2.14886 0 4.8 0Z" fill="#010101"/>
<path fill-rule="evenodd" clip-rule="evenodd" d="M30.1399 44.16C31.6005 44.16 32.7845 42.9855 32.7845 41.5369C32.7845 40.0882 31.6005 38.9136 30.1399 38.9136H29.7415C31.2021 38.9136 32.3861 40.0882 32.3861 41.5369C32.3861 42.9855 31.2021 44.16 29.7415 44.16H30.1399Z" fill="#EE1D51"/>
<path fill-rule="evenodd" clip-rule="evenodd" d="M29.7056 38.9136H29.3072C27.8466 38.9136 26.6624 40.0882 26.6624 41.5369C26.6624 42.9855 27.8466 44.16 29.3072 44.16H29.7056C28.2448 44.16 27.0608 42.9855 27.0608 41.5369C27.0608 40.0882 28.2448 38.9136 29.7056 38.9136V38.9136Z" fill="#66C8CF"/>
<path d="M29.7233 42.8124C30.4336 42.8124 31.0095 42.2413 31.0095 41.5369C31.0095 40.8325 30.4336 40.2615 29.7233 40.2615C29.0129 40.2615 28.4371 40.8325 28.4371 41.5369C28.4371 42.2413 29.0129 42.8124 29.7233 42.8124Z" fill="#010101"/>
<path fill-rule="evenodd" clip-rule="evenodd" d="M9.60001 37.7278V39.0574H11.1575V44.1239H12.7156V39.0933H13.9834L14.4181 37.7278H9.60001ZM22.3517 37.7278V39.0574H23.9092V44.1239H25.4673V39.0933H26.735L27.1697 37.7278H22.3517ZM14.7082 38.4823C14.7082 38.0657 15.0482 37.7278 15.4683 37.7278C15.8888 37.7278 16.2292 38.0657 16.2292 38.4823C16.2292 38.899 15.889 39.2369 15.4683 39.2369C15.0482 39.2367 14.7082 38.899 14.7082 38.4823ZM14.7082 39.776H16.2292V44.1239H14.7082V39.776ZM16.8814 37.7278V44.1239H18.403V42.4711L18.874 42.0395L20.3591 44.1598H21.9892L19.8517 41.0695L21.7717 39.2008H19.9242L18.403 40.7099V37.7278H16.8814ZM33.2917 37.7278V44.1239H34.8134V42.4711L35.2842 42.0395L36.7697 44.1598H38.4L36.2625 41.0695L38.1825 39.2008H36.335L34.8134 40.7099V37.7278H33.2917Z" fill="white"/>
<path fill-rule="evenodd" clip-rule="evenodd" d="M30.9438 15.5875C33.0451 17.0887 35.6194 17.9721 38.3996 17.9721V12.6247C37.8734 12.6249 37.3486 12.5701 36.8338 12.461V16.6702C34.0538 16.6702 31.4799 15.7868 29.3781 14.2855V25.1979C29.3781 30.6568 24.9505 35.0818 19.4891 35.0818C17.4514 35.0818 15.5573 34.4661 13.9839 33.4101C15.7797 35.2452 18.2839 36.3838 21.0545 36.3838C26.5163 36.3838 30.944 31.9588 30.944 26.4996V15.5875H30.9438ZM32.8753 10.1927C31.8015 9.02013 31.0965 7.50468 30.9438 5.82928V5.14154H29.46C29.8335 7.27082 31.1074 9.09002 32.8753 10.1927V10.1927ZM17.4382 29.2212C16.8382 28.435 16.514 27.473 16.5154 26.4841C16.5154 23.9873 18.5406 21.963 21.0391 21.963C21.5047 21.9627 21.9675 22.0342 22.4113 22.1748V16.708C21.8928 16.637 21.3694 16.6069 20.8462 16.618V20.8731C20.4021 20.7324 19.9391 20.661 19.4734 20.6613C16.9749 20.6613 14.9498 22.6855 14.9498 25.1825C14.9498 26.9479 15.9621 28.4766 17.4382 29.2212V29.2212Z" fill="#EE1D52"/>
<path fill-rule="evenodd" clip-rule="evenodd" d="M29.3778 14.2855C31.4797 15.7868 34.0536 16.6702 36.8336 16.6702V12.461C35.2818 12.1307 33.9081 11.3201 32.8751 10.1927C31.1072 9.09002 29.8333 7.27082 29.4598 5.14154H25.5624V26.4994C25.5536 28.9893 23.5318 31.0053 21.0387 31.0053C19.5695 31.0053 18.2643 30.3054 17.4377 29.2212C15.9616 28.4766 14.9494 26.9479 14.9494 25.1825C14.9494 22.6855 16.9744 20.6613 19.4729 20.6613C19.9516 20.6613 20.413 20.7358 20.8457 20.8731V16.618C15.4803 16.7287 11.1651 21.1106 11.1651 26.4996C11.1651 29.1897 12.2397 31.6285 13.9837 33.4103C15.5571 34.4663 17.4512 35.082 19.4889 35.082C24.9503 35.082 29.3778 30.6568 29.3778 25.1981V14.2855Z" fill="white"/>
<path fill-rule="evenodd" clip-rule="evenodd" d="M36.834 12.4612V11.323C35.4346 11.3251 34.0629 10.9335 32.8756 10.1927C33.9266 11.3428 35.3105 12.1359 36.834 12.4612V12.4612ZM29.4603 5.14179C29.4246 4.93832 29.3973 4.73347 29.3783 4.52777V3.84003H23.9969V25.1981C23.9883 27.6878 21.9667 29.7038 19.4734 29.7038C18.7413 29.7038 18.0503 29.5302 17.4382 29.2215C18.2648 30.3057 19.57 31.0055 21.0392 31.0055C23.5321 31.0055 25.554 28.9895 25.5629 26.4997V5.14179H29.4603ZM20.8464 16.6182V15.4065C20.3967 15.345 19.9434 15.3143 19.4895 15.3145C14.0275 15.3145 9.60001 19.7397 9.60001 25.1981C9.60001 28.6203 11.3401 31.6362 13.9843 33.4103C12.2404 31.6286 11.1658 29.1898 11.1658 26.4997C11.1658 21.1108 15.4808 16.729 20.8464 16.6182V16.6182Z" fill="#69C9D0"/>
<path fill-rule="evenodd" clip-rule="evenodd" d="M29.7417 44.16C31.2022 44.16 32.3865 42.9855 32.3865 41.5369C32.3865 40.0882 31.2022 38.9136 29.7417 38.9136H29.7056C28.2451 38.9136 27.061 40.0882 27.061 41.5369C27.061 42.9855 28.2451 44.16 29.7056 44.16H29.7417ZM28.4376 41.5369C28.4376 40.8322 29.0136 40.2614 29.724 40.2614C30.4338 40.2614 31.0098 40.8322 31.0098 41.5369C31.0098 42.2415 30.4338 42.8127 29.724 42.8127C29.0136 42.8125 28.4376 42.2415 28.4376 41.5369Z" fill="white"/>
</svg>
